<?xml version="1.0" encoding="UTF-8" standalone="no"?>
<!-- Created with Inkscape (http://www.inkscape.org/) -->

<svg
   width="210mm"
   height="297mm"
   viewBox="0 0 210 297"
   version="1.1"
   id="svg1"
   inkscape:version="1.3.2 (091e20e, 2023-11-25, custom)"
   sodipodi:docname="zegar.svg"
   xmlns:inkscape="http://www.inkscape.org/namespaces/inkscape"
   xmlns:sodipodi="http://sodipodi.sourceforge.net/DTD/sodipodi-0.dtd"
   xmlns:xlink="http://www.w3.org/1999/xlink"
   xmlns="http://www.w3.org/2000/svg"
   xmlns:svg="http://www.w3.org/2000/svg">
  <sodipodi:namedview
     id="namedview1"
     pagecolor="#ffffff"
     bordercolor="#000000"
     borderopacity="0.25"
     inkscape:showpageshadow="2"
     inkscape:pageopacity="0.0"
     inkscape:pagecheckerboard="0"
     inkscape:deskcolor="#d1d1d1"
     inkscape:document-units="mm"
     inkscape:zoom="0.73890575"
     inkscape:cx="221.27314"
     inkscape:cy="573.14481"
     inkscape:window-width="2560"
     inkscape:window-height="1369"
     inkscape:window-x="1912"
     inkscape:window-y="-8"
     inkscape:window-maximized="1"
     inkscape:current-layer="layer1" />
  <defs
     id="defs1">
    <radialGradient
       inkscape:collect="always"
       xlink:href="#linearGradient33"
       id="radialGradient136"
       gradientUnits="userSpaceOnUse"
       gradientTransform="matrix(-0.70115005,0,0,0.70115005,172.27249,57.584177)"
       cx="94.569054"
       cy="80.010231"
       fx="94.569054"
       fy="80.010231"
       r="44.056267" />
    <linearGradient
       id="linearGradient33"
       inkscape:collect="always">
      <stop
         style="stop-color:#666666;stop-opacity:1;"
         offset="0.86616158"
         id="stop32" />
      <stop
         style="stop-color:#191919;stop-opacity:1;"
         offset="1"
         id="stop33" />
    </linearGradient>
    <radialGradient
       inkscape:collect="always"
       xlink:href="#linearGradient13"
       id="radialGradient137"
       gradientUnits="userSpaceOnUse"
       gradientTransform="matrix(-0.67403374,0,0,0.67403374,169.70813,59.753758)"
       cx="94.569054"
       cy="80.010231"
       fx="94.569054"
       fy="80.010231"
       r="44.056267" />
    <linearGradient
       id="linearGradient13"
       inkscape:collect="always">
      <stop
         style="stop-color:#bbbbbb;stop-opacity:1;"
         offset="0.86616158"
         id="stop15" />
      <stop
         style="stop-color:#373737;stop-opacity:1;"
         offset="1"
         id="stop14" />
    </linearGradient>
    <radialGradient
       inkscape:collect="always"
       xlink:href="#linearGradient22"
       id="radialGradient138"
       gradientUnits="userSpaceOnUse"
       gradientTransform="matrix(-0.67403374,0,0,0.67403374,169.70813,59.753758)"
       cx="94.569054"
       cy="80.010231"
       fx="94.569054"
       fy="80.010231"
       r="39.878521" />
    <linearGradient
       id="linearGradient22"
       inkscape:collect="always">
      <stop
         style="stop-color:#383838;stop-opacity:1;"
         offset="0.95707077"
         id="stop21" />
      <stop
         style="stop-color:#1d1d1d;stop-opacity:1;"
         offset="1"
         id="stop22" />
    </linearGradient>
    <radialGradient
       inkscape:collect="always"
       xlink:href="#linearGradient25"
       id="radialGradient139"
       gradientUnits="userSpaceOnUse"
       gradientTransform="matrix(-0.75731202,0,0,0.75731202,177.58368,53.090642)"
       cx="94.569054"
       cy="80.010231"
       fx="94.569054"
       fy="80.010231"
       r="32.789005" />
    <linearGradient
       id="linearGradient25"
       inkscape:collect="always">
      <stop
         style="stop-color:#1c2c5f;stop-opacity:1;"
         offset="0.11111112"
         id="stop24" />
      <stop
         style="stop-color:#151515;stop-opacity:1;"
         offset="1"
         id="stop25" />
    </linearGradient>
    <radialGradient
       inkscape:collect="always"
       xlink:href="#linearGradient28"
       id="radialGradient140"
       gradientUnits="userSpaceOnUse"
       gradientTransform="matrix(-0.36800693,0,0,0.36800693,140.76746,84.239033)"
       cx="94.569054"
       cy="80.010231"
       fx="94.569054"
       fy="80.010231"
       r="44.056267" />
    <linearGradient
       id="linearGradient28"
       inkscape:collect="always">
      <stop
         style="stop-color:#959595;stop-opacity:1;"
         offset="0.9040404"
         id="stop27" />
      <stop
         style="stop-color:#5b5b5b;stop-opacity:1;"
         offset="1"
         id="stop28" />
    </linearGradient>
    <radialGradient
       inkscape:collect="always"
       xlink:href="#linearGradient35"
       id="radialGradient141"
       gradientUnits="userSpaceOnUse"
       gradientTransform="matrix(-0.67403374,0,0,0.67403374,169.70813,59.753758)"
       cx="94.569054"
       cy="80.010231"
       fx="94.569054"
       fy="80.010231"
       r="22.534529" />
    <linearGradient
       id="linearGradient35"
       inkscape:collect="always">
      <stop
         style="stop-color:#1a1a1a;stop-opacity:1;"
         offset="0.65505803"
         id="stop35" />
      <stop
         style="stop-color:#0e0e0e;stop-opacity:1;"
         offset="1"
         id="stop36" />
    </linearGradient>
    <linearGradient
       inkscape:collect="always"
       xlink:href="#linearGradient376"
       id="linearGradient141"
       gradientUnits="userSpaceOnUse"
       x1="-133.05426"
       y1="113.68326"
       x2="-129.55315"
       y2="113.68326" />
    <linearGradient
       id="linearGradient376"
       inkscape:collect="always">
      <stop
         style="stop-color:#ff1d1d;stop-opacity:1;"
         offset="0"
         id="stop376" />
      <stop
         style="stop-color:#ff1d1d;stop-opacity:0;"
         offset="1"
         id="stop377" />
    </linearGradient>
    <linearGradient
       inkscape:collect="always"
       xlink:href="#linearGradient376"
       id="linearGradient142"
       gradientUnits="userSpaceOnUse"
       x1="-175.69922"
       y1="45.469845"
       x2="-172.1981"
       y2="45.469845" />
    <linearGradient
       inkscape:collect="always"
       xlink:href="#linearGradient376"
       id="linearGradient143"
       gradientUnits="userSpaceOnUse"
       x1="-21.88217"
       y1="-148.61044"
       x2="-18.381062"
       y2="-148.61044" />
    <linearGradient
       inkscape:collect="always"
       xlink:href="#linearGradient376"
       id="linearGradient144"
       gradientUnits="userSpaceOnUse"
       x1="58.514854"
       y1="-151.43533"
       x2="62.015965"
       y2="-151.43533" />
    <linearGradient
       inkscape:collect="always"
       xlink:href="#linearGradient374"
       id="linearGradient145"
       gradientUnits="userSpaceOnUse"
       x1="-158.92325"
       y1="82.352615"
       x2="-157.14217"
       y2="82.352615" />
    <linearGradient
       id="linearGradient374"
       inkscape:collect="always">
      <stop
         style="stop-color:#d22424;stop-opacity:1;"
         offset="0"
         id="stop374" />
      <stop
         style="stop-color:#d22424;stop-opacity:0;"
         offset="1"
         id="stop375" />
    </linearGradient>
    <linearGradient
       inkscape:collect="always"
       xlink:href="#linearGradient374"
       id="linearGradient146"
       gradientUnits="userSpaceOnUse"
       x1="19.875566"
       y1="-155.40009"
       x2="21.656658"
       y2="-155.40009" />
    <linearGradient
       inkscape:collect="always"
       xlink:href="#linearGradient374"
       id="linearGradient147"
       gradientUnits="userSpaceOnUse"
       x1="98.295364"
       y1="-137.26659"
       x2="100.07646"
       y2="-137.26659" />
    <radialGradient
       inkscape:collect="always"
       xlink:href="#linearGradient28"
       id="radialGradient147"
       gradientUnits="userSpaceOnUse"
       gradientTransform="matrix(-0.29329385,0,0,0.29329385,140.66482,110.09278)"
       cx="94.569054"
       cy="80.010231"
       fx="94.569054"
       fy="80.010231"
       r="44.056267" />
    <radialGradient
       inkscape:collect="always"
       xlink:href="#linearGradient35"
       id="radialGradient148"
       gradientUnits="userSpaceOnUse"
       gradientTransform="matrix(-0.53719083,0,0,0.53719083,163.72993,90.578532)"
       cx="94.569054"
       cy="80.010231"
       fx="94.569054"
       fy="80.010231"
       r="22.534529" />
    <radialGradient
       inkscape:collect="always"
       xlink:href="#linearGradient371"
       id="radialGradient149"
       gradientUnits="userSpaceOnUse"
       gradientTransform="matrix(-0.16841615,0,0,0.16841615,121.89243,100.20827)"
       cx="94.569054"
       cy="80.010231"
       fx="94.569054"
       fy="80.010231"
       r="22.534529" />
    <linearGradient
       id="linearGradient371"
       inkscape:collect="always">
      <stop
         style="stop-color:#ff0000;stop-opacity:1;"
         offset="0.65505803"
         id="stop370" />
      <stop
         style="stop-color:#0e0e0e;stop-opacity:1;"
         offset="1"
         id="stop371" />
    </linearGradient>
  </defs>
  <g
     inkscape:label="Warstwa 1"
     inkscape:groupmode="layer"
     id="layer1">
    <g
       id="g122"
       transform="matrix(2.6551274,0,0,2.6551274,-215.38214,-162.53084)">
      <g
         id="g121"
         transform="matrix(1.0562237,0,0,1.0562237,8.742177,-3.9387825)">
        <rect
           style="fill:#7b7b7b;fill-opacity:1;fill-rule:evenodd;stroke-width:0.0613374"
           id="rect93"
           width="1.7810916"
           height="0.33659554"
           x="-80.83773"
           y="113.51497"
           transform="scale(-1,1)" />
        <rect
           style="fill:#7b7b7b;fill-opacity:1;fill-rule:evenodd;stroke-width:0.0613374"
           id="rect94"
           width="1.7810916"
           height="0.33659554"
           x="-80.83773"
           y="113.51497"
           transform="scale(-1,1)" />
        <path
           d="m 105.9655,82.793159 c 17.06013,-3e-5 30.89014,13.829977 30.89011,30.890111 3e-5,17.06013 -13.82998,30.89013 -30.89011,30.89011 -17.06013,2e-5 -30.890143,-13.82998 -30.89011,-30.89011 -3.3e-5,-17.060134 13.82998,-30.890141 30.89011,-30.890111 z m 0,1.194726 C 89.565228,83.9879 76.270129,97.283 76.270115,113.68327 c 1.4e-5,16.40027 13.295113,29.69537 29.695385,29.69538 16.40027,-1e-5 29.69536,-13.29511 29.69538,-29.69538 C 135.66086,97.283 122.36577,83.9879 105.9655,83.987885 Z"
           style="fill:url(#radialGradient136);fill-rule:evenodd;stroke-width:0.185512"
           id="path94" />
        <path
           d="m 105.9655,83.987885 c 16.40028,1.5e-5 29.69536,13.295098 29.69538,29.695385 -2e-5,16.40028 -13.2951,29.69537 -29.69538,29.69538 -16.400285,-1e-5 -29.695371,-13.2951 -29.695385,-29.69538 1.4e-5,-16.400287 13.2951,-29.69537 29.695385,-29.695385 z m 0,2.816139 c -14.845053,-6.7e-5 -26.879467,12.034192 -26.879595,26.879246 -6.8e-5,14.84518 12.034407,26.87966 26.879595,26.87959 14.84505,-1.3e-4 26.87931,-12.03454 26.87924,-26.87959 -1.2e-4,-14.844917 -12.03433,-26.879121 -26.87924,-26.879246 z"
           style="fill:url(#radialGradient137);fill-rule:evenodd;stroke-width:0.178338"
           id="path95" />
        <path
           d="m 105.9655,86.804024 c 14.84493,1.25e-4 26.87912,12.034314 26.87924,26.879246 7e-5,14.84506 -12.03418,26.87946 -26.87924,26.87959 -14.845202,7e-5 -26.879663,-12.03439 -26.879595,-26.87959 1.28e-4,-14.845068 12.034528,-26.879313 26.879595,-26.879246 z m 0,2.047754 c -13.714025,1e-5 -24.831483,11.117468 -24.83149,24.831492 7e-6,13.71402 11.117465,24.83148 24.83149,24.83149 13.71402,-1e-5 24.83148,-11.11747 24.83149,-24.83149 -1e-5,-13.714024 -11.11747,-24.831482 -24.83149,-24.831492 z"
           style="fill:url(#radialGradient138);fill-rule:evenodd;stroke-width:0.161426"
           id="path96" />
        <path
           d="m 105.9655,88.851778 c 13.71403,1e-5 24.83148,11.117454 24.83149,24.831492 -1e-5,13.71403 -11.11746,24.83148 -24.83149,24.83149 -13.714038,-1e-5 -24.831483,-11.11746 -24.83149,-24.83149 7e-6,-13.714038 11.117452,-24.831482 24.83149,-24.831492 z m 0,8.618397 c -8.954248,-4.5e-5 -16.21314,7.258845 -16.213092,16.213095 -4.8e-5,8.95424 7.258844,16.21314 16.213092,16.21309 8.95411,-1.5e-4 16.21279,-7.25898 16.21274,-16.21309 5e-5,-8.95411 -7.25863,-16.212947 -16.21274,-16.213095 z"
           style="fill:url(#radialGradient139);fill-rule:evenodd;stroke-width:0.149127"
           id="path97" />
        <path
           d="m 105.9655,97.470175 c 8.95411,1.48e-4 16.21279,7.258975 16.21274,16.213095 5e-5,8.95411 -7.25863,16.21294 -16.21274,16.21309 -8.954254,5e-5 -16.21314,-7.25884 -16.213092,-16.21309 -4.8e-5,-8.95426 7.258838,-16.21314 16.213092,-16.213095 z m 0,1.024051 c -8.388673,-5e-6 -15.189046,6.800374 -15.189046,15.189044 0,8.38867 6.800373,15.18904 15.189046,15.18904 8.38867,0 15.18904,-6.80037 15.18904,-15.18904 0,-8.38867 -6.80037,-15.189049 -15.18904,-15.189044 z"
           style="fill:url(#radialGradient140);fill-rule:evenodd;stroke-width:0.0973682"
           id="path98" />
        <path
           d="M 105.9655,98.494226 A 15.189033,15.189033 0 0 1 121.15454,113.68327 15.189033,15.189033 0 0 1 105.9655,128.87231 15.189033,15.189033 0 0 1 90.776454,113.68327 15.189033,15.189033 0 0 1 105.9655,98.494226 Z"
           style="fill:url(#radialGradient141);fill-rule:evenodd;stroke-width:0.091219"
           id="path99" />
        <rect
           style="fill:#7b7b7b;fill-opacity:1;fill-rule:evenodd;stroke-width:0.092619"
           id="rect101"
           width="3.5011089"
           height="0.39042458"
           x="-82.377815"
           y="113.48805"
           transform="scale(-1,1)" />
        <rect
           style="fill:url(#linearGradient141);fill-opacity:1;fill-rule:evenodd;stroke-width:0.092619"
           id="rect102"
           width="3.5011089"
           height="0.39042458"
           x="-133.05426"
           y="113.48805"
           transform="scale(-1,1)" />
        <rect
           style="fill:#8e8e8e;fill-opacity:1;fill-rule:evenodd;stroke-width:0.092619"
           id="rect103"
           width="3.5011089"
           height="0.39042458"
           x="-125.02277"
           y="45.274632"
           transform="matrix(-0.8660254,-0.5,-0.5,0.8660254,0,0)" />
        <rect
           style="fill:url(#linearGradient142);fill-opacity:1;fill-rule:evenodd;stroke-width:0.092619"
           id="rect104"
           width="3.5011089"
           height="0.39042458"
           x="-175.69922"
           y="45.274632"
           transform="matrix(-0.8660254,-0.5,-0.5,0.8660254,0,0)" />
        <rect
           style="fill:#7b7b7b;fill-opacity:1;fill-rule:evenodd;stroke-width:0.092619"
           id="rect105"
           width="3.5011089"
           height="0.39042458"
           x="-127.84766"
           y="-35.122391"
           transform="matrix(-0.5,-0.8660254,-0.8660254,0.5,0,0)" />
        <rect
           style="fill:#7b7b7b;fill-opacity:1;fill-rule:evenodd;stroke-width:0.092619"
           id="rect106"
           width="3.5011089"
           height="0.39042458"
           x="-90.095581"
           y="-106.16071"
           transform="matrix(0,-1,-1,0,0,0)" />
        <rect
           style="fill:url(#linearGradient143);fill-opacity:1;fill-rule:evenodd;stroke-width:0.092619"
           id="rect107"
           width="3.5011089"
           height="0.39042458"
           x="-21.88217"
           y="-148.80565"
           transform="matrix(0.5,-0.8660254,-0.8660254,-0.5,0,0)" />
        <rect
           style="fill:url(#linearGradient144);fill-opacity:1;fill-rule:evenodd;stroke-width:0.092619"
           id="rect108"
           width="3.5011089"
           height="0.39042458"
           x="58.514854"
           y="-151.63054"
           transform="matrix(0.8660254,-0.5,-0.5,-0.8660254,0,0)" />
        <rect
           style="fill:#7b7b7b;fill-opacity:1;fill-rule:evenodd;stroke-width:0.092619"
           id="rect109"
           width="3.5011089"
           height="0.39042458"
           x="7.8383913"
           y="-151.63054"
           transform="matrix(0.8660254,-0.5,-0.5,-0.8660254,0,0)" />
        <rect
           style="fill:#7b7b7b;fill-opacity:1;fill-rule:evenodd;stroke-width:0.0613374"
           id="rect110"
           width="1.7810916"
           height="0.33659557"
           x="-106.64635"
           y="82.184319"
           transform="matrix(-0.96592583,-0.25881905,-0.25881905,0.96592583,0,0)" />
        <rect
           style="fill:url(#linearGradient145);fill-opacity:1;fill-rule:evenodd;stroke-width:0.0613374"
           id="rect111"
           width="1.7810916"
           height="0.33659557"
           x="-158.92325"
           y="82.184319"
           transform="matrix(-0.96592583,-0.25881905,-0.25881905,0.96592583,0,0)" />
        <rect
           style="fill:#7b7b7b;fill-opacity:1;fill-rule:evenodd;stroke-width:0.0613374"
           id="rect112"
           width="1.7810916"
           height="0.33659557"
           x="-130.15218"
           y="5.204041"
           transform="matrix(-0.70710678,-0.70710678,-0.70710678,0.70710678,0,0)" />
        <rect
           style="fill:#7b7b7b;fill-opacity:1;fill-rule:evenodd;stroke-width:0.0613374"
           id="rect113"
           width="1.7810916"
           height="0.33659557"
           x="-112.01868"
           y="-73.215759"
           transform="matrix(-0.25881905,-0.96592583,-0.96592583,0.25881905,0,0)" />
        <rect
           style="fill:#7b7b7b;fill-opacity:1;fill-rule:evenodd;stroke-width:0.0613374"
           id="rect114"
           width="1.7810916"
           height="0.33659557"
           x="-57.104721"
           y="-132.06255"
           transform="matrix(0.25881905,-0.96592583,-0.96592583,-0.25881905,0,0)" />
        <rect
           style="fill:#7b7b7b;fill-opacity:1;fill-rule:evenodd;stroke-width:0.0613374"
           id="rect115"
           width="1.7810916"
           height="0.33659557"
           x="19.875566"
           y="-155.56839"
           transform="matrix(0.70710678,-0.70710678,-0.70710678,-0.70710678,0,0)" />
        <rect
           style="fill:url(#linearGradient146);fill-opacity:1;fill-rule:evenodd;stroke-width:0.0613374"
           id="rect116"
           width="1.7810916"
           height="0.33659557"
           x="19.875566"
           y="-155.56839"
           transform="matrix(0.70710678,-0.70710678,-0.70710678,-0.70710678,0,0)" />
        <rect
           style="fill:#7b7b7b;fill-opacity:1;fill-rule:evenodd;stroke-width:0.0613374"
           id="rect117"
           width="1.7810915"
           height="0.33659554"
           x="98.295364"
           y="-137.43488"
           transform="matrix(0.96592583,-0.25881905,-0.25881905,-0.96592583,0,0)" />
        <rect
           style="fill:url(#linearGradient147);fill-opacity:1;fill-rule:evenodd;stroke-width:0.0613374"
           id="rect118"
           width="1.7810915"
           height="0.33659554"
           x="98.295364"
           y="-137.43488"
           transform="matrix(0.96592583,-0.25881905,-0.25881905,-0.96592583,0,0)" />
        <rect
           style="fill:#7b7b7b;fill-opacity:1;fill-rule:evenodd;stroke-width:0.0613374"
           id="rect119"
           width="1.7810915"
           height="0.33659554"
           x="46.018467"
           y="-137.43488"
           transform="matrix(0.96592583,-0.25881905,-0.25881905,-0.96592583,0,0)" />
        <path
           d="m 112.92838,120.63773 c 7.13624,1.2e-4 12.92126,5.78525 12.92122,12.9215 4e-5,7.13624 -5.78498,12.92137 -12.92122,12.92149 -7.13635,4e-5 -12.92153,-5.78514 -12.9215,-12.92149 -3e-5,-7.13636 5.78515,-12.92153 12.9215,-12.9215 z m 0,0.81615 c -6.6856,-1e-5 -12.10535,5.41975 -12.10535,12.10535 0,6.68559 5.41975,12.10535 12.10535,12.10535 6.6856,0 12.10535,-5.41976 12.10535,-12.10535 0,-6.6856 -5.41975,-12.10536 -12.10535,-12.10535 z"
           style="fill:url(#radialGradient147);fill-rule:evenodd;stroke-width:0.0776004"
           id="path119" />
        <path
           d="m 112.92838,121.45388 a 12.105343,12.105343 0 0 1 12.10535,12.10535 12.105343,12.105343 0 0 1 -12.10535,12.10535 12.105343,12.105343 0 0 1 -12.10535,-12.10535 12.105343,12.105343 0 0 1 12.10535,-12.10535 z"
           style="fill:url(#radialGradient148);fill-rule:evenodd;stroke-width:0.0726996"
           id="path120" />
        <path
           d="m 105.9655,109.88809 a 3.7951787,3.7951787 0 0 1 3.79518,3.79518 3.7951787,3.7951787 0 0 1 -3.79518,3.79518 3.7951787,3.7951787 0 0 1 -3.79518,-3.79518 3.7951787,3.7951787 0 0 1 3.79518,-3.79518 z"
           style="fill:url(#radialGradient149);fill-rule:evenodd;stroke-width:0.0227923"
           id="path121" />
      </g>
    </g>
  </g>
</svg>
